<?xml version="1.0" encoding="UTF-8"?>
<svg id="Capa_2" data-name="Capa 2" xmlns="http://www.w3.org/2000/svg" xmlns:xlink="http://www.w3.org/1999/xlink" viewBox="0 0 195.7 29.92">
  <defs>
    <style>
      .cls-1 {
        fill: none;
      }

      .cls-2 {
        fill: #6ac5d9;
      }

      .cls-3 {
        fill: #f6f6f6;
      }

      .cls-4 {
        clip-path: url(#clippath-1);
      }

      .cls-5 {
        clip-path: url(#clippath-3);
      }

      .cls-6 {
        clip-path: url(#clippath-2);
      }

      .cls-7 {
        fill: url(#Degradado_sin_nombre_202);
      }

      .cls-8 {
        fill: url(#Degradado_sin_nombre_8-2);
      }

      .cls-9 {
        fill: url(#Degradado_sin_nombre_8);
      }

      .cls-10 {
        opacity: .37;
      }

      .cls-11 {
        opacity: .3;
      }

      .cls-12 {
        fill: url(#Degradado_sin_nombre_202-2);
      }

      .cls-13 {
        clip-path: url(#clippath);
      }
    </style>
    <clipPath id="clippath">
      <path class="cls-1" d="M13.09,18.11c-.16,0-.32,0-.48.03-.05,0-.11.01-.16.02-.16.03-.32.06-.48.11-.2.06-.4.13-.58.22-.43.2-.82.47-1.15.8-.73.73-1.18,1.74-1.18,2.85v3.8H2.78v-3.97c0-.69.07-1.37.2-2.03.05-.25.11-.5.18-.75h0c.85-3.03,3.04-5.5,5.9-6.72.18-.08.36-.15.54-.21.23-.08.46-.16.7-.22.01,0,.02,0,.04-.01.47-.13.96-.23,1.46-.29.08-.01.17-.02.26-.03.13-.01.26-.02.39-.03.21-.01.42-.02.64-.02-.22,0-.43.02-.64.06-.22.04-.42.11-.62.19-1.15.49-1.96,1.63-1.96,2.97s.88,2.57,2.11,3.03c.2.07.41.13.63.16.16.02.31.04.48.04Z"/>
    </clipPath>
    <linearGradient id="Degradado_sin_nombre_202" data-name="Degradado sin nombre 202" x1="15.87" y1="17.14" x2="7.55" y2="25.47" gradientUnits="userSpaceOnUse">
      <stop offset=".08" stop-color="#6a4696"/>
      <stop offset=".44" stop-color="#6ac5d9"/>
      <stop offset="1" stop-color="#fff"/>
    </linearGradient>
    <clipPath id="clippath-1">
      <path class="cls-1" d="M23.4,4.01v3.79c0,.69-.07,1.37-.2,2.03-.05.25-.11.5-.18.75-.85,3.03-3.04,5.5-5.9,6.72-.15.06-.3.12-.45.18-.03.01-.06.02-.09.03-.02,0-.04.01-.06.02,0,0-.01,0-.02,0-.05.02-.1.03-.14.05-.16.05-.32.1-.48.15-.01,0-.02,0-.04.01-.03.01-.07.02-.1.03-.08.02-.16.04-.24.06-.08.02-.16.04-.24.05-.09.02-.18.04-.26.05-.2.04-.41.07-.62.09-.08.01-.16.02-.25.03-.13.01-.26.02-.4.03-.16.01-.32.02-.48.02.04,0,.08,0,.12,0,.01,0,.03,0,.04,0,.1-.01.21-.03.31-.05,0,0,0,0,.01,0,.03,0,.06-.01.09-.02.02,0,.05-.01.07-.02.05-.01.09-.02.14-.04h0c.06-.02.12-.04.18-.06.04-.01.08-.03.11-.04,0,0,0,0,0,0,0,0,0,0,0,0,.04-.02.07-.03.11-.05.03-.02.07-.03.1-.05,0,0,.02,0,.03-.01,0,0,0,0,0,0,.03-.02.06-.03.09-.05,0,0,0,0,.01,0,0,0,0,0,.01,0,.03-.02.07-.04.1-.06.06-.04.11-.07.17-.11.03-.02.06-.05.1-.07,0,0,0,0,0,0,.03-.02.05-.04.08-.07.02-.02.04-.03.06-.05h0s0,0,0,0c.03-.03.07-.06.1-.1.03-.03.07-.07.1-.11h0s.04-.04.05-.06c0,0,0,0,0,0,.01-.01.02-.03.03-.04.02-.02.04-.05.06-.08.01-.02.02-.03.04-.05.02-.02.04-.05.05-.07h0s.03-.04.04-.06c.02-.02.03-.05.05-.07.01-.02.02-.03.03-.05.02-.03.04-.06.06-.09,0-.01.02-.03.02-.04.02-.03.03-.05.05-.08.02-.04.04-.08.06-.13.02-.03.03-.07.04-.1.02-.03.03-.07.04-.1,0-.02.01-.03.02-.05.01-.03.02-.06.03-.09.01-.04.03-.08.04-.12.01-.04.02-.07.03-.11,0-.02.01-.04.02-.06.01-.04.02-.08.03-.13.01-.05.02-.1.03-.15,0-.05.01-.1.02-.15,0-.04,0-.08,0-.12,0-.02,0-.05,0-.07,0-.04,0-.09,0-.13,0-1.33-.81-2.48-1.96-2.97-.2-.08-.41-.15-.62-.19-.21-.04-.42-.06-.64-.06.22,0,.43-.02.64-.05h0c.22-.03.43-.09.63-.15.15-.05.29-.1.43-.17.43-.2.82-.47,1.15-.8.73-.73,1.18-1.74,1.18-2.85v-3.63h6.28Z"/>
    </clipPath>
    <linearGradient id="Degradado_sin_nombre_202-2" data-name="Degradado sin nombre 202" x1="10.38" y1="12.64" x2="20.13" y2="2.89" xlink:href="#Degradado_sin_nombre_202"/>
    <clipPath id="clippath-2">
      <path class="cls-1" d="M9.07,4.01v7.08c-.17.06-.34.13-.5.2-2.55,1.08-4.56,3-5.78,5.36V4.01h6.28Z"/>
    </clipPath>
    <linearGradient id="Degradado_sin_nombre_8" data-name="Degradado sin nombre 8" x1="5.93" y1="16.82" x2="5.93" y2="4.03" gradientUnits="userSpaceOnUse">
      <stop offset="0" stop-color="#fff"/>
      <stop offset="1" stop-color="#1d1d1b"/>
    </linearGradient>
    <clipPath id="clippath-3">
      <path class="cls-1" d="M23.4,13.11v12.82h-6.28v-7.26c.16-.06.33-.12.5-.2,2.55-1.09,4.57-3,5.78-5.36Z"/>
    </clipPath>
    <linearGradient id="Degradado_sin_nombre_8-2" data-name="Degradado sin nombre 8" x1="20.26" y1="24.07" x2="20.26" y2="11.12" xlink:href="#Degradado_sin_nombre_8"/>
  </defs>
  <g id="Capa_1-2" data-name="Capa 1">
    <g>
      <g>
        <g>
          <g class="cls-13">
            <g>
              <path class="cls-3" d="M13.09,18.11c-1.11,0-2.12.45-2.85,1.18-.73.73-1.18,1.74-1.18,2.85v3.8H2.78v-3.97c0-4.26,2.59-7.93,6.28-9.49,1.24-.52,2.59-.81,4.02-.81-1.78,0-3.22,1.44-3.22,3.22s1.44,3.22,3.22,3.22Z"/>
              <path class="cls-7" d="M15.05,17.45c-.88.68-1.41,1.64-1.55,2.66-.14,1.02.12,2.09.79,2.98l2.31,3.02-4.99,3.81-2.41-3.15c-2.59-3.39-2.75-7.87-.77-11.36.66-1.17,1.57-2.22,2.7-3.09-1.41,1.08-1.68,3.1-.6,4.52s3.1,1.69,4.52.61Z"/>
            </g>
          </g>
          <g class="cls-4">
            <g>
              <path class="cls-3" d="M23.4,4.01v3.79c0,4.26-2.59,7.93-6.28,9.49-.15.06-.3.12-.45.18-.05.02-.1.04-.15.05,0,0-.01,0-.02,0-.05.02-.1.03-.14.05-.2.07-.41.13-.62.19-.08.02-.16.04-.24.06-.08.02-.16.04-.24.05-.09.02-.18.04-.26.05-.56.1-1.14.16-1.74.17.04,0,.08,0,.12,0,.01,0,.03,0,.04,0,.11-.01.22-.03.32-.05.03,0,.06-.01.09-.02.02,0,.05-.01.07-.02.05-.01.09-.02.14-.04h0c.06-.02.12-.04.18-.06.04-.01.08-.03.11-.04,0,0,0,0,0,0,.04-.02.08-.03.12-.05.03-.02.07-.03.1-.05,0,0,.02,0,.03-.01,0,0,0,0,0,0,.03-.02.06-.03.09-.05,0,0,0,0,.01,0,0,0,0,0,.01,0,.03-.02.07-.04.1-.06.06-.04.11-.07.17-.11.03-.02.06-.05.1-.07,0,0,0,0,0,0,.03-.02.05-.04.08-.07.02-.02.04-.03.06-.05h0s0,0,0,0c.03-.03.07-.06.1-.1.03-.03.07-.07.1-.11h0s.04-.04.05-.06c0,0,0,0,0,0,.01-.01.02-.03.03-.04.02-.02.04-.05.06-.08.01-.02.02-.03.04-.05.02-.02.04-.05.05-.07h0s.03-.04.04-.06c.02-.02.03-.05.05-.07.01-.02.02-.03.03-.05.02-.03.04-.06.06-.09,0-.01.02-.03.02-.04.02-.03.03-.05.05-.08.02-.04.04-.08.06-.13.02-.03.03-.07.04-.1.02-.03.03-.07.04-.1,0-.02.01-.03.02-.05.01-.03.02-.06.03-.09.01-.04.03-.08.04-.12.01-.04.02-.07.03-.11,0-.02.01-.04.02-.06.01-.04.02-.08.03-.13.01-.05.02-.1.03-.15,0-.05.01-.1.02-.15,0-.04,0-.08,0-.12,0-.02,0-.05,0-.07,0-.04,0-.09,0-.13,0-1.78-1.44-3.22-3.22-3.22,1.11,0,2.12-.45,2.85-1.18.73-.73,1.18-1.74,1.18-2.85v-3.63h6.28Z"/>
              <path class="cls-12" d="M14.63,0l2.3,3.01c2.59,3.39,2.75,7.87.77,11.36-.08.14-.16.28-.25.42-.03.05-.06.09-.09.13,0,0,0,.01-.01.02-.03.04-.06.08-.08.13-.12.18-.25.35-.38.52-.05.06-.1.13-.15.19-.05.06-.1.13-.16.19-.06.07-.12.13-.18.2-.38.43-.81.82-1.27,1.19.03-.03.06-.05.09-.08.01,0,.02-.02.03-.03.08-.07.16-.15.22-.23.02-.02.04-.05.06-.07.02-.02.03-.04.05-.06.03-.04.06-.07.08-.11h0c.04-.05.07-.11.11-.16.02-.03.04-.07.06-.1,0,0,0,0,0,0,.02-.04.04-.08.06-.12.02-.03.03-.07.05-.1,0,0,0-.02.01-.03,0,0,0,0,0,0,.02-.03.03-.06.04-.1,0,0,0-.01,0-.02,0,0,0,0,0-.01.02-.04.03-.07.04-.11.02-.06.04-.13.06-.19.01-.04.02-.08.03-.12,0,0,0,0,0,0,0-.03.02-.07.02-.1,0-.02.01-.05.02-.08h0s0-.01,0-.01c0-.05.02-.09.02-.14,0-.05.01-.1.02-.15h0s0-.05,0-.08c0,0,0,0,0,0,0-.02,0-.03,0-.05,0-.03,0-.07,0-.1,0-.02,0-.04,0-.06,0-.03,0-.06,0-.09h0s0-.05,0-.07c0-.03,0-.06,0-.09,0-.02,0-.04,0-.05,0-.04,0-.07,0-.1,0-.02,0-.03,0-.05,0-.03,0-.06-.01-.09,0-.05-.02-.09-.03-.14,0-.03-.02-.07-.03-.11,0-.04-.02-.07-.03-.11,0-.02,0-.03-.01-.05,0-.03-.02-.06-.03-.09-.01-.04-.03-.08-.04-.12-.01-.04-.03-.07-.04-.11,0-.02-.02-.04-.02-.06-.02-.04-.04-.08-.06-.12-.02-.05-.05-.09-.07-.14-.02-.04-.05-.09-.07-.13-.02-.04-.04-.07-.07-.1-.01-.02-.03-.04-.04-.06-.03-.04-.05-.07-.08-.11-1.08-1.41-3.1-1.69-4.52-.61.88-.67,1.41-1.64,1.55-2.66.14-1.02-.12-2.09-.79-2.98l-2.2-2.88L14.63,0Z"/>
            </g>
          </g>
          <g class="cls-6">
            <g>
              <path class="cls-3" d="M9.07,4.01v7.91c-2.97,1.2-5.3,3.68-6.28,6.75V4.01h6.28Z"/>
              <g class="cls-11">
                <path class="cls-9" d="M9.07,4.01v7.91c-2.97,1.2-5.3,3.68-6.28,6.75V4.01h6.28Z"/>
              </g>
              <path class="cls-3" d="M6.28,1.75v8.89c0,.4-.21.77-.56.96-2.81,1.53-5.72,6.06-5.72,11.65V1.75h6.28Z"/>
            </g>
          </g>
          <g class="cls-5">
            <g>
              <path class="cls-3" d="M23.4,11.09v14.84h-6.28v-8.09c2.97-1.2,5.3-3.67,6.28-6.75Z"/>
              <g class="cls-10">
                <path class="cls-8" d="M23.4,11.09v14.84h-6.28v-8.09c2.97-1.2,5.3-3.67,6.28-6.75Z"/>
              </g>
              <path class="cls-3" d="M27.51,8.65v17.72h-6.28v-7.45c0-.38.21-.72.54-.9,2.82-1.53,5.74-6.1,5.74-9.37Z"/>
            </g>
          </g>
        </g>
        <circle class="cls-2" cx="13.09" cy="14.97" r="1.99"/>
      </g>
      <g>
        <path class="cls-3" d="M46.78,16.07c0,6.27-3.89,10.35-9.7,10.35s-9.93-4.08-9.93-10.35V4.06h5.39v12.02c0,3.33,1.8,5.39,4.54,5.39,2.58,0,4.31-2.06,4.31-5.39V4.06h5.39v12.02Z"/>
        <path class="cls-3" d="M64.87,14.77c2.02.16,4.21,1.73,4.21,5.03,0,3.62-2.45,6.14-7.22,6.14h-11.36V4.06h11.33c4.02,0,6.63,2.38,6.63,5.98,0,3-2.12,4.44-3.59,4.6v.13ZM55.89,13.1h4.7c1.6,0,2.64-.98,2.64-2.45,0-1.37-1.08-2.25-2.45-2.25h-4.9v4.7ZM60.91,21.59c1.73,0,2.68-.95,2.68-2.45s-1.04-2.35-2.58-2.35h-5.13v4.8h5.03Z"/>
        <path class="cls-3" d="M72.18,19.57v-4.41h10.81v4.41h-10.81Z"/>
        <path class="cls-3" d="M107.74,25.93h-4.44l-11.07-12.67v12.67h-5.39V4.06h4.47l11.07,13.06V4.06h5.35v21.88Z"/>
        <path class="cls-3" d="M128.6,25.93h-17.05V4.06h16.95v4.64h-11.56v4.11h10.61v4.38h-10.61v4.11h11.66v4.64Z"/>
        <path class="cls-3" d="M145.51,25.93l-6.6-7.51h-1.57v7.51h-5.39V4.06h11.07c4.73,0,7.87,2.87,7.87,7.15,0,3.59-2.22,6.17-5.75,6.96l6.86,7.77h-6.5ZM142.44,13.92c1.93,0,3.17-1.04,3.17-2.65s-1.24-2.61-3.17-2.61h-5.09v5.26h5.09Z"/>
        <path class="cls-3" d="M162.78,4.06c7.22,0,11.98,4.44,11.98,10.94s-4.77,10.94-11.98,10.94h-8.65V4.06h8.65ZM162.59,21.26c4.08,0,6.76-2.48,6.76-6.27s-2.68-6.27-6.76-6.27h-3.07v12.54h3.07Z"/>
        <path class="cls-3" d="M195.43,9.9l-5.29,1.08c-.39-2.06-2.09-3.07-3.82-3.07s-2.94.98-2.94,2.22c0,.88.39,1.53,1.76,1.83l4.54,1.01c3.79.85,6.01,2.91,6.01,6.37,0,4.67-4.15,7.09-9.01,7.09s-8.98-2.35-9.57-6.63l5.55-1.08c.55,2.25,2.12,3.23,4.31,3.23,2.02,0,3.23-.91,3.23-2.25,0-.98-.46-1.6-2.03-1.93l-4.57-.98c-3.13-.72-5.88-2.35-5.88-6.33,0-4.25,3.53-6.89,8.65-6.89,4.77,0,8.23,2.35,9.05,6.33Z"/>
      </g>
    </g>
  </g>
</svg>